<?xml version="1.0" encoding="UTF-8" standalone="no"?><!-- Generator: Gravit.io --><svg xmlns="http://www.w3.org/2000/svg" xmlns:xlink="http://www.w3.org/1999/xlink" style="isolation:isolate" viewBox="0 0 1280 800" width="1280pt" height="800pt"><path d=" M 134.454 348.503 L 134.454 348.503 L 134.454 348.503 Q 134.454 379.154 118.953 396.707 L 118.953 396.707 L 118.953 396.707 Q 103.453 414.259 75.858 414.259 L 75.858 414.259 L 75.858 414.259 Q 47.651 414.259 32.326 397.012 L 32.326 397.012 L 32.326 397.012 Q 17 379.765 17 348.328 L 17 348.328 L 17 348.328 Q 17 317.153 32.369 299.993 L 32.369 299.993 L 32.369 299.993 Q 47.739 282.833 76.032 282.833 L 76.032 282.833 L 76.032 282.833 Q 103.54 282.833 118.997 300.299 L 118.997 300.299 L 118.997 300.299 Q 134.454 317.764 134.454 348.503 Z  M 43.971 349.422 L 43.971 349.422 L 43.971 349.422 Q 43.971 368.572 52.127 378.469 L 52.127 378.469 L 52.127 378.469 Q 60.284 388.367 75.824 388.367 L 75.824 388.367 L 75.824 388.367 Q 91.492 388.367 99.487 378.502 L 99.487 378.502 L 99.487 378.502 Q 107.483 368.636 107.483 349.422 L 107.483 349.422 L 107.483 349.422 Q 107.483 330.4 99.52 320.567 L 99.52 320.567 L 99.52 320.567 Q 91.556 310.734 75.952 310.734 L 75.952 310.734 L 75.952 310.734 Q 60.284 310.734 52.127 320.632 L 52.127 320.632 L 52.127 320.632 Q 43.971 330.529 43.971 349.422 Z " fill-rule="evenodd" fill="rgb(0,0,0)"/><path d=" M 243.873 322.043 L 243.873 322.043 L 243.873 322.043 Q 243.873 341.429 230.643 351.865 L 230.643 351.865 L 230.643 351.865 Q 217.413 362.3 192.787 362.3 L 192.787 362.3 L 192.787 362.3 L 192.787 412.513 L 162.922 412.513 L 162.922 284.842 L 196.019 284.842 L 196.019 284.842 Q 243.873 284.842 243.873 322.043 Z  M 190.052 308.616 L 190.052 335.906 L 197.081 335.906 L 197.081 335.906 Q 207.463 335.906 212.104 332.552 L 212.104 332.552 L 212.104 332.552 Q 216.744 329.198 216.744 321.802 L 216.744 321.802 L 216.744 321.802 Q 216.744 315.14 212.379 311.878 L 212.379 311.878 L 212.379 311.878 Q 208.015 308.616 198.78 308.616 L 198.78 308.616 L 190.052 308.616 Z " fill-rule="evenodd" fill="rgb(0,0,0)"/><path d=" M 341.766 391.554 L 341.766 412.513 L 270.595 412.513 L 270.595 284.842 L 341.766 284.842 L 341.766 305.364 L 289.54 305.364 L 289.54 335.906 L 338.36 335.906 L 338.36 358.545 L 289.54 358.545 L 289.54 391.554 L 341.766 391.554 Z " fill="rgb(0,0,0)"/><path d=" M 406.149 359.418 L 390.691 359.418 L 390.691 412.513 L 370.059 412.513 L 370.059 284.842 L 405.077 284.842 L 405.077 284.842 Q 428.568 284.842 439.789 293.836 L 439.789 293.836 L 439.789 293.836 Q 451.011 302.831 451.011 320.908 L 451.011 320.908 L 451.011 320.908 Q 451.011 346.232 425.337 355.139 L 425.337 355.139 L 460.005 412.513 L 437.063 412.513 L 406.149 359.418 Z  M 390.691 301.53 L 390.691 340.285 L 406.845 340.285 L 406.845 340.285 Q 419.325 340.285 425.149 335.328 L 425.149 335.328 L 425.149 335.328 Q 430.972 330.371 430.972 320.457 L 430.972 320.457 L 430.972 320.457 Q 430.972 310.404 425.045 305.967 L 425.045 305.967 L 425.045 305.967 Q 419.117 301.53 406.013 301.53 L 406.013 301.53 L 390.691 301.53 Z " fill-rule="evenodd" fill="rgb(0,0,0)"/><path d=" M 576.236 412.513 L 555.83 412.513 L 539.937 371.906 L 497.788 371.906 L 482.069 412.513 L 463.062 412.513 L 513.536 284.318 L 526.024 284.318 L 576.236 412.513 Z  M 504.471 354.358 L 534.827 354.358 L 523.917 325.285 L 523.917 325.285 Q 521.799 319.766 519.553 311.744 L 519.553 311.744 L 519.553 311.744 Q 518.141 317.905 515.51 325.285 L 515.51 325.285 L 504.471 354.358 Z " fill-rule="evenodd" fill="rgb(0,0,0)"/><path d=" M 633.086 298.028 L 633.086 412.513 L 618.24 412.513 L 618.24 298.028 L 577.808 298.028 L 577.808 284.842 L 673.518 284.842 L 673.518 298.028 L 633.086 298.028 Z " fill="rgb(0,0,0)"/><path d=" M 707.575 412.513 L 692.73 412.513 L 692.73 284.842 L 707.575 284.842 L 707.575 412.513 Z " fill="rgb(0,0,0)"/><path d=" M 853.41 348.503 L 853.41 348.503 L 853.41 348.503 Q 853.41 379.154 837.909 396.707 L 837.909 396.707 L 837.909 396.707 Q 822.409 414.259 794.814 414.259 L 794.814 414.259 L 794.814 414.259 Q 766.607 414.259 751.282 397.012 L 751.282 397.012 L 751.282 397.012 Q 735.956 379.765 735.956 348.328 L 735.956 348.328 L 735.956 348.328 Q 735.956 317.153 751.325 299.993 L 751.325 299.993 L 751.325 299.993 Q 766.695 282.833 794.988 282.833 L 794.988 282.833 L 794.988 282.833 Q 822.496 282.833 837.953 300.299 L 837.953 300.299 L 837.953 300.299 Q 853.41 317.764 853.41 348.503 Z  M 751.675 348.503 L 751.675 348.503 L 751.675 348.503 Q 751.675 374.438 762.721 387.843 L 762.721 387.843 L 762.721 387.843 Q 773.768 401.248 794.814 401.248 L 794.814 401.248 L 794.814 401.248 Q 816.034 401.248 826.862 387.887 L 826.862 387.887 L 826.862 387.887 Q 837.691 374.526 837.691 348.503 L 837.691 348.503 L 837.691 348.503 Q 837.691 322.741 826.906 309.424 L 826.906 309.424 L 826.906 309.424 Q 816.121 296.107 794.988 296.107 L 794.988 296.107 L 794.988 296.107 Q 773.768 296.107 762.721 309.512 L 762.721 309.512 L 762.721 309.512 Q 751.675 322.916 751.675 348.503 Z " fill-rule="evenodd" fill="rgb(0,0,0)"/><path d=" M 981.604 284.842 L 981.604 412.513 L 964.663 412.513 L 894.889 305.364 L 894.191 305.364 L 894.191 305.364 Q 895.588 324.226 895.588 339.945 L 895.588 339.945 L 895.588 412.513 L 881.878 412.513 L 881.878 284.842 L 898.644 284.842 L 968.243 391.554 L 968.942 391.554 L 968.942 391.554 Q 968.767 389.197 968.156 376.403 L 968.156 376.403 L 968.156 376.403 Q 967.545 363.61 967.719 358.109 L 967.719 358.109 L 967.719 284.842 L 981.604 284.842 Z " fill="rgb(0,0,0)"/><path d=" M 1132.257 347.379 L 1217.604 474.708 L 1156.445 474.708 L 1097.704 379.168 L 1038.963 474.708 L 981.604 474.708 L 1065.396 344.442 L 986.96 222.122 L 1046.046 222.122 L 1100.468 312.998 L 1153.853 222.122 L 1211.557 222.122 L 1132.257 347.379 Z " fill="rgb(0,0,0)"/></svg>